<svg width="45" height="45" viewBox="0 0 45 45" fill="none" xmlns="http://www.w3.org/2000/svg">
<g clip-path="url(#clip0_117_13)">
<path d="M33.0413 22.2137L23.9764 13.1488C23.7908 12.9631 23.684 12.7138 23.6797 12.4556C23.6753 12.1974 23.7737 11.9515 23.9532 11.7721C24.1326 11.5926 24.3785 11.4942 24.6367 11.4986C24.8949 11.5029 25.1442 11.6097 25.3299 11.7953L35.0948 21.5602C35.2804 21.7459 35.3872 21.9952 35.3915 22.2534C35.3959 22.5116 35.2975 22.7575 35.118 22.9369L25.6438 32.4111C25.4644 32.5906 25.2185 32.689 24.9603 32.6846C24.7021 32.6803 24.4528 32.5735 24.2671 32.3879C24.0815 32.2022 23.9747 31.9529 23.9704 31.6947C23.966 31.4365 24.0644 31.1906 24.2439 31.0111L33.0413 22.2137Z" fill="#005057"/>
<path d="M34.4018 21.2624C34.6603 21.2668 34.91 21.3737 35.0959 21.5595C35.2817 21.7454 35.3886 21.9951 35.393 22.2536C35.3974 22.5121 35.2989 22.7583 35.1192 22.938C34.9394 23.1177 34.6933 23.2162 34.4347 23.2118L11.0305 22.8163C10.9025 22.8142 10.7753 22.7868 10.6563 22.7358C10.5372 22.6849 10.4285 22.6112 10.3365 22.5192C10.2444 22.4272 10.1708 22.3185 10.1198 22.1994C10.0688 22.0803 10.0415 21.9532 10.0393 21.8252C10.0372 21.6972 10.0602 21.5708 10.1072 21.4534C10.1542 21.336 10.2242 21.2297 10.3132 21.1407C10.4022 21.0518 10.5084 20.9818 10.6258 20.9348C10.7433 20.8878 10.8696 20.8647 10.9976 20.8669L34.4018 21.2624Z" fill="#005057"/>
</g>
<defs>
<clipPath id="clip0_117_13">
<rect width="31.678" height="30.6252" fill="white" transform="translate(21.6553) rotate(45)"/>
</clipPath>
</defs>
</svg>
