<svg width="45" height="45" viewBox="0 0 45 45" fill="none" xmlns="http://www.w3.org/2000/svg">
<g clip-path="url(#clip0_114_2)">
<path d="M32.1768 28.1542C30.6524 28.6987 29.8667 30.3576 30.4112 31.882C30.6714 32.6105 31.2103 33.2058 31.9094 33.5369C32.6085 33.868 33.4105 33.9078 34.139 33.6477C34.8675 33.3875 35.4627 32.8485 35.7939 32.1494C36.125 31.4503 36.1648 30.6483 35.9046 29.9199C35.6444 29.1914 35.1055 28.5961 34.4064 28.265C33.7073 27.9339 32.9053 27.894 32.1768 28.1542ZM2.35449 14.0292L3.33557 16.7759L6.08228 15.7948L14.7496 24.4526L14.0836 28.4845C14.015 28.9426 14.0532 29.44 14.2249 29.9206C14.4851 30.6491 15.0241 31.2444 15.7232 31.5755C16.4223 31.9066 17.2243 31.9465 17.9527 31.6863L34.433 25.7998L33.4519 23.0531L17.5485 28.7335C17.4574 28.7661 17.3571 28.7611 17.2698 28.7197C17.1824 28.6783 17.115 28.6039 17.0825 28.5128C17.058 28.4442 17.0521 28.3843 17.0648 28.3333L17.5013 25.6533L27.7328 21.9987C28.7628 21.6308 29.4632 20.7303 29.6309 19.7257L31.3737 9.08398C31.3913 8.82991 31.3766 8.57191 31.2932 8.33844C31.1631 7.9742 30.8937 7.67657 30.5441 7.51101C30.1946 7.34545 29.7936 7.32553 29.4293 7.45563L9.1174 14.7107L6.84537 12.4251M18.4433 33.0596C16.9188 33.6041 16.1331 35.263 16.6776 36.7874C16.9378 37.5159 17.4768 38.1112 18.1759 38.4423C18.875 38.7734 19.677 38.8132 20.4054 38.5531C21.1339 38.2929 21.7292 37.7539 22.0603 37.0548C22.3914 36.3557 22.4313 35.5537 22.1711 34.8253C21.9109 34.0968 21.3719 33.5015 20.6728 33.1704C19.9737 32.8393 19.1717 32.7994 18.4433 33.0596Z" fill="#182641"/>
</g>
<defs>
<clipPath id="clip0_114_2">
<rect width="35" height="35" fill="white" transform="translate(0 11.7729) rotate(-19.6559)"/>
</clipPath>
</defs>
</svg>
