<svg width="30" height="30" viewBox="0 0 30 30" fill="none" xmlns="http://www.w3.org/2000/svg">
<path d="M15 2.5C21.9037 2.5 27.5 8.09625 27.5 15C27.5 21.9037 21.9037 27.5 15 27.5C8.09625 27.5 2.5 21.9037 2.5 15C2.5 8.09625 8.09625 2.5 15 2.5ZM20.005 16.0975C19.5737 15.4413 19.2625 14.9688 18.0775 15.1562C15.84 15.5112 15.5912 15.9025 15.485 16.5475L15.455 16.7425L15.4237 16.95C15.3025 17.8038 15.3062 18.1263 15.6987 18.5375C17.28 20.1975 18.2275 21.3937 18.515 22.0938C18.655 22.435 19.015 23.4688 18.7675 24.4913C20.2844 23.8863 21.6348 22.9276 22.7063 21.695C22.8438 21.2275 22.9437 20.645 22.9437 19.94V19.8088C22.9437 18.6562 22.9437 18.13 22.1287 17.6637C21.8672 17.5145 21.5981 17.379 21.3225 17.2575C20.8638 17.0487 20.56 16.9125 20.15 16.3125C20.1 16.2417 20.0517 16.17 20.005 16.0975ZM15 4.79125C12.1038 4.79125 9.4875 5.99875 7.63 7.93625C7.85125 8.09 8.04375 8.30625 8.17625 8.60375C8.43125 9.175 8.43125 9.76375 8.43125 10.285C8.43125 10.695 8.43125 11.085 8.5625 11.3663C8.7425 11.7513 9.52 11.9163 10.2063 12.0588C10.4525 12.1112 10.705 12.1637 10.935 12.2275C11.5675 12.4025 12.0575 12.9712 12.4487 13.4275C12.6112 13.6162 12.8525 13.895 12.9737 13.965C13.0363 13.92 13.2375 13.7013 13.3362 13.3425C13.4137 13.0675 13.3912 12.825 13.28 12.6925C12.58 11.8675 12.6187 10.28 12.835 9.69375C13.175 8.77 14.2375 8.83875 15.015 8.88875C15.305 8.9075 15.5775 8.92625 15.7825 8.9C16.56 8.8025 16.8 7.61875 16.9688 7.3875C17.3337 6.8875 18.4512 6.13375 19.1437 5.66875C17.8398 5.08738 16.4277 4.78833 15 4.79125Z" fill="#E0FE08"/>
</svg>
