<svg width="30" height="30" viewBox="0 0 30 30" fill="none" xmlns="http://www.w3.org/2000/svg">
<path d="M24.1138 7.50002H25.0012C25.3328 7.50002 25.6507 7.63172 25.8851 7.86614C26.1196 8.10056 26.2512 8.4185 26.2512 8.75002V17.5C26.2512 17.8315 26.1196 18.1495 25.8851 18.3839C25.6507 18.6183 25.3328 18.75 25.0012 18.75H22.5012L17.2888 11.455C16.9856 11.0308 16.5574 10.712 16.064 10.5433C15.5707 10.3745 15.037 10.3642 14.5375 10.5138L11.43 11.4463C10.9977 11.5757 10.5385 11.5857 10.101 11.4752C9.66347 11.3647 9.26402 11.1379 8.945 10.8188L8.57875 10.4525C8.44799 10.3218 8.34786 10.1637 8.28558 9.98956C8.2233 9.81546 8.20043 9.6297 8.2186 9.44569C8.23677 9.26168 8.29555 9.08399 8.39068 8.92543C8.48581 8.76688 8.61494 8.6314 8.76875 8.52877L15.52 4.02877C15.923 3.75991 16.3955 3.61394 16.8799 3.60861C17.3644 3.60328 17.8399 3.73883 18.2487 3.99877L23.4437 7.30502C23.6437 7.43207 23.8769 7.4997 24.1138 7.50002ZM6.28375 17.8688L4.26375 19.6363C4.12569 19.7573 4.01599 19.9072 3.94244 20.0755C3.86889 20.2437 3.83329 20.426 3.83819 20.6095C3.84308 20.7931 3.88834 20.9733 3.97075 21.1373C4.05316 21.3014 4.17069 21.4453 4.315 21.5588L10.74 26.6088C10.8812 26.72 11.0448 26.7994 11.2195 26.8416C11.3942 26.8838 11.576 26.8879 11.7524 26.8535C11.9289 26.8191 12.0958 26.747 12.2419 26.6422C12.3879 26.5374 12.5096 26.4024 12.5988 26.2463L13.4788 24.7063C13.7408 24.2477 13.8509 23.7178 13.7931 23.1928C13.7354 22.6678 13.5129 22.1745 13.1575 21.7838L9.78 18.0688C9.33955 17.5842 8.72653 17.2917 8.07274 17.2543C7.41895 17.2169 6.77659 17.4376 6.28375 17.8688ZM8.8075 6.25002H3.75C3.41848 6.25002 3.10054 6.38172 2.86612 6.61614C2.6317 6.85056 2.5 7.1685 2.5 7.50002V16.895C2.50007 17.3992 2.65257 17.8916 2.9375 18.3075L3.03 18.225L5.04875 16.4575C5.91124 15.7028 7.03544 15.3166 8.17965 15.3821C9.32386 15.4475 10.3967 15.9594 11.1675 16.8075L14.545 20.5225C15.1666 21.2061 15.5558 22.069 15.6569 22.9874C15.7579 23.9058 15.5656 24.8326 15.1075 25.635L14.2887 27.0675C14.642 27.2015 15.021 27.2536 15.3972 27.2201C15.7735 27.1865 16.1373 27.0681 16.4612 26.8738L21.9738 23.5663C22.1216 23.4775 22.2494 23.359 22.3492 23.2184C22.449 23.0778 22.5187 22.9181 22.5538 22.7493C22.5889 22.5804 22.5887 22.4062 22.5532 22.2374C22.5177 22.0687 22.4477 21.9091 22.3475 21.7688L15.7638 12.545C15.6879 12.4391 15.5809 12.3595 15.4577 12.3174C15.3344 12.2752 15.201 12.2727 15.0763 12.31L11.9688 13.2413C11.2122 13.4682 10.4084 13.4861 9.64255 13.2931C8.87669 13.1001 8.17735 12.7034 7.61875 12.145L7.2525 11.7788C6.92548 11.4519 6.67506 11.0566 6.5193 10.6213C6.36354 10.1859 6.30631 9.72148 6.35175 9.26136C6.39718 8.80125 6.54415 8.35695 6.78206 7.9605C7.01996 7.56406 7.34287 7.22534 7.7275 6.96877L8.8075 6.25002Z" fill="#E0FE08"/>
</svg>
