<svg width="30" height="30" viewBox="0 0 30 30" fill="none" xmlns="http://www.w3.org/2000/svg">
<path fill-rule="evenodd" clip-rule="evenodd" d="M15 23.75C15.3062 23.75 15.6017 23.8624 15.8305 24.0659C16.0593 24.2693 16.2054 24.5497 16.2413 24.8537L16.25 25V26.25C16.2496 26.5686 16.1277 26.875 15.9089 27.1067C15.6902 27.3384 15.3913 27.4778 15.0733 27.4965C14.7552 27.5151 14.442 27.4117 14.1977 27.2072C13.9534 27.0027 13.7964 26.7126 13.7587 26.3963L13.75 26.25V25C13.75 24.6685 13.8817 24.3505 14.1161 24.1161C14.3505 23.8817 14.6685 23.75 15 23.75ZM8.8125 21.1875C9.04684 21.4219 9.17848 21.7398 9.17848 22.0712C9.17848 22.4027 9.04684 22.7206 8.8125 22.955L7.92875 23.8387C7.81344 23.9581 7.67551 24.0534 7.52301 24.1189C7.3705 24.1844 7.20648 24.2189 7.0405 24.2203C6.87453 24.2218 6.70993 24.1901 6.55631 24.1273C6.40269 24.0644 6.26312 23.9716 6.14576 23.8542C6.02839 23.7369 5.93557 23.5973 5.87272 23.4437C5.80987 23.2901 5.77824 23.1255 5.77969 22.9595C5.78113 22.7935 5.81561 22.6295 5.88112 22.477C5.94663 22.3245 6.04186 22.1866 6.16125 22.0712L7.045 21.1875C7.27941 20.9532 7.59729 20.8215 7.92875 20.8215C8.26021 20.8215 8.57809 20.9532 8.8125 21.1875ZM22.955 21.1875L23.8387 22.0712C24.0664 22.307 24.1924 22.6228 24.1896 22.9505C24.1867 23.2782 24.0553 23.5918 23.8235 23.8235C23.5918 24.0553 23.2782 24.1867 22.9505 24.1896C22.6228 24.1924 22.307 24.0664 22.0712 23.8387L21.1875 22.955C20.9598 22.7192 20.8338 22.4035 20.8367 22.0757C20.8395 21.748 20.971 21.4345 21.2027 21.2027C21.4345 20.971 21.748 20.8395 22.0757 20.8367C22.4035 20.8338 22.7192 20.9598 22.955 21.1875ZM15.7712 2.5C16.3807 2.49987 16.9692 2.72236 17.4261 3.12565C17.8831 3.52895 18.1769 4.08526 18.2525 4.69L18.7275 8.49C20.1621 9.31165 21.285 10.5843 21.9216 12.11C22.5582 13.6358 22.6729 15.3291 22.2478 16.9267C21.8227 18.5244 20.8816 19.9368 19.5709 20.9443C18.2601 21.9519 16.6532 22.4981 15 22.4981C13.3468 22.4981 11.7399 21.9519 10.4291 20.9443C9.11842 19.9368 8.17733 18.5244 7.75221 16.9267C7.32709 15.3291 7.44175 13.6358 8.07838 12.11C8.715 10.5843 9.83791 9.31165 11.2725 8.49L11.7475 4.69C11.8231 4.08526 12.1169 3.52895 12.5739 3.12565C13.0308 2.72236 13.6193 2.49987 14.2288 2.5H15.7712ZM5 13.75C5.33152 13.75 5.64946 13.8817 5.88388 14.1161C6.1183 14.3505 6.25 14.6685 6.25 15C6.25 15.3315 6.1183 15.6495 5.88388 15.8839C5.64946 16.1183 5.33152 16.25 5 16.25H3.75C3.41848 16.25 3.10054 16.1183 2.86612 15.8839C2.6317 15.6495 2.5 15.3315 2.5 15C2.5 14.6685 2.6317 14.3505 2.86612 14.1161C3.10054 13.8817 3.41848 13.75 3.75 13.75H5ZM26.25 13.75C26.5815 13.75 26.8995 13.8817 27.1339 14.1161C27.3683 14.3505 27.5 14.6685 27.5 15C27.5 15.3315 27.3683 15.6495 27.1339 15.8839C26.8995 16.1183 26.5815 16.25 26.25 16.25H25C24.6685 16.25 24.3505 16.1183 24.1161 15.8839C23.8817 15.6495 23.75 15.3315 23.75 15C23.75 14.6685 23.8817 14.3505 24.1161 14.1161C24.3505 13.8817 24.6685 13.75 25 13.75H26.25ZM23.8387 6.1625C24.0731 6.39691 24.2047 6.7148 24.2047 7.04625C24.2047 7.37771 24.0731 7.69559 23.8387 7.93L22.955 8.81375C22.8397 8.93314 22.7018 9.02837 22.5493 9.09388C22.3967 9.15939 22.2327 9.19387 22.0667 9.19531C21.9008 9.19675 21.7362 9.16513 21.5826 9.10228C21.4289 9.03943 21.2894 8.94661 21.172 8.82924C21.0546 8.71188 20.9618 8.57231 20.899 8.41869C20.8361 8.26507 20.8045 8.10047 20.8059 7.9345C20.8074 7.76852 20.8419 7.6045 20.9074 7.45199C20.9729 7.29949 21.0681 7.16156 21.1875 7.04625L22.0712 6.1625C22.3057 5.92816 22.6235 5.79652 22.955 5.79652C23.2865 5.79652 23.6043 5.92816 23.8387 6.1625ZM7.92875 6.1625L8.8125 7.04625C9.03457 7.28306 9.15579 7.59698 9.15052 7.92159C9.14525 8.24619 9.0139 8.55601 8.78426 8.78549C8.55462 9.01497 8.2447 9.1461 7.9201 9.15114C7.59549 9.15618 7.28166 9.03474 7.045 8.8125L6.16125 7.92875C5.93918 7.69194 5.81796 7.37802 5.82323 7.05341C5.8285 6.72881 5.95985 6.41899 6.18949 6.18951C6.41913 5.96003 6.72904 5.8289 7.05365 5.82386C7.37826 5.81882 7.69209 5.94026 7.92875 6.1625ZM15.7712 5H14.2288L13.9163 7.5H16.0837L15.7712 5Z" fill="#E0FE08"/>
</svg>
