<svg width="43" height="43" viewBox="0 0 43 43" fill="none" xmlns="http://www.w3.org/2000/svg">
<g clip-path="url(#clip0_174_697)">
<path fill-rule="evenodd" clip-rule="evenodd" d="M16.8643 36.4396L16.869 36.4427C17.162 36.6785 17.3569 36.6954 17.3569 36.6954C17.3569 36.6954 17.5334 36.7798 17.9073 36.7257L17.9111 36.725L17.9227 36.7227L17.9567 36.7175C18.1373 36.6865 18.3169 36.6508 18.4956 36.6104C18.8538 36.534 19.3591 36.4105 19.973 36.2278C21.1966 35.8648 22.8574 35.262 24.6248 34.2945C28.1554 32.3621 32.1707 28.9312 33.7785 23.0337C34.2017 21.4816 34.3149 19.8614 34.1119 18.2656C33.9089 16.6698 33.3935 15.1296 32.5953 13.7329C31.797 12.3362 30.7315 11.1105 29.4595 10.1256C28.1875 9.14076 26.734 8.41608 25.1819 7.99295C23.6299 7.56982 22.0097 7.45653 20.4139 7.65956C18.818 7.86258 17.2778 8.37794 15.8812 9.1762C14.4845 9.97447 13.2587 11.04 12.2739 12.312C11.289 13.584 10.5643 15.0375 10.1412 16.5895C8.53385 22.4854 10.2518 27.4811 12.3148 30.9385C13.1791 32.3831 14.1931 33.7326 15.3401 34.9647C15.7844 35.4421 16.2508 35.8985 16.7376 36.3325L16.8289 36.41L16.8556 36.4318L16.8643 36.4396ZM20.9242 23.6105C21.9317 23.8851 23.0071 23.7483 23.9137 23.2301C24.8204 22.7119 25.484 21.8548 25.7587 20.8473C26.0334 19.8398 25.8966 18.7644 25.3784 17.8577C24.8602 16.9511 24.0031 16.2874 22.9955 16.0128C21.988 15.7381 20.9126 15.8749 20.006 16.3931C19.0994 16.9113 18.4357 17.7684 18.161 18.7759C17.8863 19.7835 18.0231 20.8588 18.5413 21.7655C19.0595 22.6721 19.9167 23.3358 20.9242 23.6105Z" fill="#005057"/>
</g>
<defs>
<clipPath id="clip0_174_697">
<rect width="35" height="35" fill="white" transform="translate(9.21875 0.0131836) rotate(15.2497)"/>
</clipPath>
</defs>
</svg>
