<svg width="30" height="30" viewBox="0 0 30 30" fill="none" xmlns="http://www.w3.org/2000/svg">
<path d="M24.0715 18.641C22.9475 19.3242 21.6567 19.6835 20.3414 19.6793C19.2395 19.6706 18.1501 19.4452 17.1351 19.016C16.3529 20.1203 15.9343 21.4409 15.9375 22.7942V26.25C15.9378 26.3785 15.9116 26.5057 15.8607 26.6237C15.8097 26.7417 15.7351 26.848 15.6413 26.9359C15.5476 27.0238 15.4368 27.0915 15.3157 27.1348C15.1947 27.1781 15.0661 27.196 14.9379 27.1875C14.6969 27.1665 14.4728 27.0552 14.3104 26.8759C14.1481 26.6966 14.0595 26.4626 14.0625 26.2207V24.7629L9.5367 20.2371C8.86393 20.4881 8.1524 20.6194 7.43436 20.625C6.44583 20.6276 5.4758 20.3571 4.63123 19.8434C2.07772 18.2918 0.703108 14.7211 0.969123 10.2879C0.982517 10.0585 1.07966 9.8421 1.24212 9.67964C1.40457 9.51719 1.62102 9.42005 1.85037 9.40665C6.28358 9.14532 9.85428 10.5152 11.4012 13.0688C12.0089 14.0696 12.2742 15.2412 12.157 16.4063C12.1497 16.4965 12.1164 16.5828 12.0612 16.6545C12.006 16.7263 11.9311 16.7805 11.8457 16.8106C11.7603 16.8407 11.668 16.8455 11.5799 16.8242C11.4919 16.803 11.4119 16.7568 11.3496 16.691L9.09959 14.3356C8.92235 14.1672 8.68633 14.0747 8.44187 14.0778C8.1974 14.0809 7.96383 14.1794 7.79096 14.3523C7.61808 14.5252 7.51957 14.7588 7.51644 15.0032C7.51331 15.2477 7.60581 15.4837 7.7742 15.6609L14.0883 22.1356C14.0953 22.0442 14.1035 21.9527 14.1129 21.8625C14.3179 20.1243 15.0849 18.5006 16.2972 17.2383L22.2258 10.9734C22.4017 10.7977 22.5006 10.5593 22.5007 10.3106C22.5008 10.0619 22.4021 9.82338 22.2263 9.64747C22.0506 9.47156 21.8122 9.37267 21.5635 9.37256C21.3148 9.37245 21.0763 9.47113 20.9004 9.64689L15.1582 15.7195C15.1007 15.7804 15.028 15.8248 14.9475 15.8481C14.8671 15.8713 14.7819 15.8726 14.7008 15.8518C14.6197 15.831 14.5457 15.7888 14.4864 15.7297C14.4271 15.6706 14.3847 15.5967 14.3637 15.5156C13.8082 13.4672 14.0531 11.4281 15.1137 9.67735C17.2066 6.22267 22.0769 4.37345 28.1426 4.7297C28.3719 4.74309 28.5884 4.84024 28.7508 5.00269C28.9133 5.16515 29.0104 5.3816 29.0238 5.61095C29.3754 11.6777 27.5262 16.5481 24.0715 18.641Z" fill="#E0FE08"/>
</svg>
