<svg width="75" height="92" viewBox="0 0 75 92" fill="none" xmlns="http://www.w3.org/2000/svg">
<path d="M38.6341 40.9095L45.248 43.4697C45.2183 44.0365 45.0735 47.878 45.0528 48.4452C44.9655 51.5371 45.0032 54.649 45.2775 57.0339C45.3874 57.9896 45.5398 58.7318 45.7292 59.487C45.8578 59.9997 46.0034 60.5184 46.1643 61.1139C47.1258 64.6721 48.7685 68.0668 51.3746 72.3657L53.7874 76.6802C53.7874 76.6802 36.348 57.1016 38.6341 40.9095Z" fill="white"/>
<path fill-rule="evenodd" clip-rule="evenodd" d="M63.0121 32.3252C63.825 32.0729 64.5581 31.8454 65.1798 31.6226C70.0292 29.8844 70.15 29.2031 70.1527 29.1599C69.783 46.8839 61.2088 55.2005 45.8846 56.1684L51.7319 51.9939C58.0749 50.9811 62.1323 49.0209 63.6864 47.2683C57.56 49.9714 57.3121 49.3029 53.4403 50.0662C58.6771 45.2927 65.3226 37.5453 65.3226 37.5453C65.3226 37.5453 56.9509 42.2458 51.5237 48.6983C50.948 45.2814 51.6702 44.2725 52.8471 40.6735L53.7213 38.7985C51.4411 41.6209 49.6969 45.1906 50.1927 49.4857C48.8009 51.2646 47.9566 52.5461 47.1412 53.9383C46.7363 54.6295 46.3386 55.3481 45.8846 56.1684C45.8353 56.2576 45.7125 56.423 45.5882 56.5907C45.4606 56.7627 45.3312 56.9371 45.2775 57.0339C45.0032 54.649 44.9655 51.5371 45.0528 48.4452C47.5381 37.1283 57.2668 34.1086 63.0121 32.3252Z" fill="white"/>
<path fill-rule="evenodd" clip-rule="evenodd" d="M45.5882 56.5907C45.7125 56.423 45.8353 56.2576 45.8846 56.1684L50.0886 57.4094C50.0886 57.4094 47.3903 59.2167 47.5759 59.5358C48.1327 60.4933 51.7891 58.1116 51.7891 58.1116C52.4962 58.4292 53.1873 58.7725 53.857 59.1391C53.857 59.1391 50.3061 60.8523 50.5333 61.8306C50.7606 62.8089 55.6872 60.234 55.6872 60.234C56.1855 60.5595 56.6668 60.8981 57.1282 61.2486C57.1282 61.2486 53.2739 63.3119 53.0068 64.3214C52.7397 65.331 59.2627 63.0991 59.2627 63.0991C61.8235 65.6538 63.311 68.6286 62.9076 71.6372C57.3945 70.4619 54.4369 69.0801 49.3578 65.5446C48.164 63.9224 47.0036 62.006 45.8727 59.7725L45.2775 57.0339C45.3312 56.9371 45.4606 56.7627 45.5882 56.5907Z" fill="white"/>
<path d="M62.6526 72.8114C62.7708 72.42 62.8552 72.0283 62.9076 71.6372C57.3945 70.4619 54.4369 69.0801 49.3578 65.5446C53.3652 70.9898 57.7489 73.1211 62.6526 72.8114Z" fill="#6F6F6F"/>
<path d="M71.1096 27.0064C66.7405 22.4265 61.2216 19.104 55.1295 17.386C49.0374 15.668 42.5958 15.6175 36.4775 17.2399C30.3593 18.8622 24.789 22.0978 20.3486 26.6087C16.2327 31.6374 16.3952 31.8634 13.5358 37.5631L18.2324 44.6212C19.447 39.7313 21.9524 35.2574 25.4869 31.6667C29.0215 28.0761 33.4554 25.5005 38.3255 24.2091C43.1957 22.9177 48.3232 22.9579 53.1725 24.3255C58.0218 25.693 58.1748 25.7688 62.4712 28.257L71.1096 27.0064Z" fill="white"/>
<path d="M9.56396 54.5794C9.68815 60.9078 11.7915 66.609 15.1198 71.993C18.4482 77.3769 23.1613 81.7683 28.7668 84.7082C34.3723 87.6482 40.6644 89.0288 46.9859 88.7059C53.4182 87.7821 56.8383 87.0076 62.1329 83.4537L54.5716 80.2519C52.3287 81.1445 51.6499 81.2481 46.6181 81.5052C41.5862 81.7622 36.5776 80.6632 32.1157 78.323C27.6537 75.9828 23.902 72.4873 21.2527 68.2017C18.6033 63.9161 17.0574 58.8866 16.281 53.8765L9.56396 54.5794Z" fill="white"/>
<path d="M9.56396 54.5794L16.281 53.8765C17.4992 53.7502 21.3201 53.5582 21.3201 53.5582L12.1743 39.8289L4.70141 55.0185C4.70141 55.0185 6.5338 54.9027 9.56396 54.5794Z" fill="white"/>
</svg>
